<mxfile host="app.diagrams.net" modified="2024-02-27T13:34:09.008Z" agent="Mozilla/5.0 (Windows NT 10.0; Win64; x64) AppleWebKit/537.36 (KHTML, like Gecko) Chrome/121.0.0.0 Safari/537.36" version="23.1.7" etag="dXoD8Ez4duifmfgRs7BH" type="github">
  <diagram name="Halaman-1" id="KrHhynF7p-XQM7Ha1q40">
    <mxGraphModel>
      <root>
        <mxCell id="0" />
        <mxCell id="1" parent="0" />
      </root>
    </mxGraphModel>
  </diagram>
</mxfile>
